# This file uses centimeters as units for non-parametric coordinates.

mtllib 3by1 Slope Tile.mtl
g default
v -1.000000 3.000000 1.000000
v -1.000000 2.737117 0.674988
v -1.000000 2.737117 -0.837250
v -1.000000 3.000000 -1.000000
v 1.000000 2.737117 0.674988
v 1.000000 3.000000 1.000000
v 1.000000 3.000000 -1.000000
v 1.000000 2.737117 -0.837250
v -1.000000 -1.799597 -0.837250
v -1.000000 -3.000000 -1.000000
v 1.000000 -3.000000 -1.000000
v 1.000000 -1.799597 -0.837250
v 0.748981 -2.845600 -0.948533
v -0.748981 -2.845600 -0.948533
v 0.748981 2.845600 0.948533
v -0.748981 2.845600 0.948533
vt 0.625000 0.340086
vt 0.375000 0.465098
vt 0.375000 0.340086
vt 0.375000 0.590111
vt 0.625000 0.465098
vt 0.625000 0.590111
vt 0.375000 0.250000
vt 0.375000 0.500000
vt 0.625000 0.250000
vt 0.625000 0.500000
vt 0.375000 0.750000
vt 0.625000 0.750000
vt 0.375000 0.750000
vt 0.625000 0.750000
vt 0.625000 0.250000
vt 0.375000 0.250000
vn -1.000000 0.000000 0.000000
vn -1.000000 0.000000 0.000000
vn -1.000000 0.000000 0.000000
vn -1.000000 0.000000 0.000000
vn 1.000000 0.000000 0.000000
vn 1.000000 0.000000 0.000000
vn 1.000000 0.000000 0.000000
vn 1.000000 0.000000 0.000000
vn 1.000000 0.000000 0.000000
vn -1.000000 0.000000 0.000000
vn -1.000000 0.000000 0.000000
vn 1.000000 0.000000 0.000000
vn 0.000000 -0.316228 0.948683
vn 0.000000 -0.316228 0.948683
vn 0.000000 -0.316228 0.948683
vn 0.000000 -0.316228 0.948683
vn 0.000000 -0.316228 0.948683
vn 0.000000 -0.316228 0.948683
vn 0.000000 -0.316228 0.948683
vn 0.000000 -0.316228 0.948683
vn 0.000000 -0.316228 0.948683
vn 0.000000 -0.316228 0.948683
vn 0.000000 -0.316228 0.948683
vn 0.000000 -0.316228 0.948683
vn 0.000000 -0.316228 0.948683
vn 0.000000 -0.316228 0.948683
vn 0.000000 -0.316228 0.948683
vn 0.000000 -0.316228 0.948683
vn 0.000000 -0.316228 0.948683
vn 0.000000 -0.316228 0.948683
vn 0.000000 -0.316228 0.948683
vn 0.000000 -0.316228 0.948683
s 1
g Slope3b1_geo Zeroed
usemtl aiStandardSurface2SG
f 2/3/1 1/7/2 4/8/3 3/2/4
s 2
f 6/9/5 5/1/6 8/5/7 7/10/8
usemtl aiStandardSurface1SG
f 8/5/7 5/1/6 12/6/9
s 1
f 3/2/4 9/4/10 2/3/1
usemtl aiStandardSurface2SG
f 3/2/4 4/8/3 10/11/11 9/4/10
s 2
f 7/10/8 8/5/7 12/6/9 11/12/12
s 1
f 1/7/2 2/3/1 9/4/10 10/11/11
s 2
f 5/1/6 6/9/5 11/12/12 12/6/9
s off
usemtl aiStandardSurface1SG
f 14/13/13 13/14/14 15/15/15 16/16/16
usemtl aiStandardSurface2SG
f 10/11/17 11/12/18 13/14/19 14/13/20
f 11/12/21 6/9/22 15/15/23 13/14/24
f 6/9/25 1/7/26 16/16/27 15/15/28
f 1/7/29 10/11/30 14/13/31 16/16/32
