# This file uses centimeters as units for non-parametric coordinates.

mtllib Center Tile.mtl
g default
v -1.000000 -1.000000 0.800020
v -0.800020 -1.000000 0.800020
v -0.800020 -1.000000 1.000000
v 1.000000 -1.000000 0.800020
v 0.800020 -1.000000 1.000000
v 0.800020 -1.000000 0.800020
v -1.000000 1.000000 0.800020
v -0.800020 1.000000 1.000000
v -0.800020 1.000000 0.800020
v 1.000000 1.000000 0.800020
v 0.800020 1.000000 0.800020
v 0.800020 1.000000 1.000000
v -1.000000 1.000000 -0.800020
v -0.800020 1.000000 -0.800020
v -0.800020 1.000000 -1.000000
v 0.800020 1.000000 -1.000000
v 0.800020 1.000000 -0.800020
v 1.000000 1.000000 -0.800020
v -1.000000 -1.000000 -0.800020
v -0.800020 -1.000000 -1.000000
v -0.800020 -1.000000 -0.800020
v 1.000000 -1.000000 -0.800020
v 0.800020 -1.000000 -0.800020
v 0.800020 -1.000000 -1.000000
v -1.000000 -1.000000 1.000000
v 1.000000 -1.000000 1.000000
v -1.000000 1.000000 1.000000
v 1.000000 1.000000 1.000000
v -1.000000 1.000000 -1.000000
v 1.000000 1.000000 -1.000000
v -1.000000 -1.000000 -1.000000
v 1.000000 -1.000000 -1.000000
v 0.764553 0.955667 0.764553
v -0.764553 0.955667 0.764553
v 0.764553 0.955667 -0.764553
v -0.764553 0.955667 -0.764553
v 0.764553 -0.955667 -0.764553
v -0.764553 -0.955667 -0.764553
v 0.764553 -0.955667 0.764553
v -0.764553 -0.955667 0.764553
vt 0.399998 0.975003
vt 0.600003 0.975003
vt 0.399998 0.475002
vt 0.600003 0.475002
vt 0.600003 0.774997
vt 0.399998 0.274998
vt 0.600003 0.274998
vt 0.399998 0.774997
vt 0.375000 0.975002
vt 0.399998 1.000000
vt 0.625000 0.975002
vt 0.600002 1.000000
vt 0.375000 0.274998
vt 0.399998 0.250000
vt 0.625000 0.274998
vt 0.600003 0.250000
vt 0.375000 0.475002
vt 0.399998 0.500000
vt 0.600003 0.500000
vt 0.625000 0.475002
vt 0.375000 0.774998
vt 0.399998 0.750000
vt 0.625000 0.774998
vt 0.600003 0.750000
vt 0.375000 1.000000
vt 0.625000 1.000000
vt 0.375000 0.250000
vt 0.625000 0.250000
vt 0.375000 0.500000
vt 0.625000 0.500000
vt 0.375000 0.750000
vt 0.625000 0.750000
vt 0.399998 0.274998
vt 0.600003 0.274998
vt 0.600003 0.475002
vt 0.399998 0.475002
vt 0.399998 0.774997
vt 0.600003 0.774997
vt 0.600003 0.975003
vt 0.399998 0.975003
vn 0.000000 -1.000000 0.000000
vn 0.000000 -1.000000 0.000000
vn 0.000000 -1.000000 0.000000
vn 0.000000 -1.000000 0.000000
vn 0.000000 -1.000000 0.000000
vn 0.000000 -1.000000 0.000000
vn 0.000000 -1.000000 0.000000
vn 0.000000 -1.000000 0.000000
vn 0.000000 -1.000000 0.000000
vn 0.000000 -1.000000 0.000000
vn 0.000000 1.000000 0.000000
vn 0.000000 1.000000 0.000000
vn 0.000000 1.000000 0.000000
vn 0.000000 1.000000 0.000000
vn 0.000000 1.000000 0.000000
vn 0.000000 1.000000 0.000000
vn 0.000000 1.000000 0.000000
vn 0.000000 1.000000 0.000000
vn 0.000000 1.000000 0.000000
vn 0.000000 1.000000 0.000000
vn 0.000000 1.000000 0.000000
vn 0.000000 1.000000 0.000000
vn 0.000000 -1.000000 0.000000
vn 0.000000 -1.000000 0.000000
vn 0.000000 1.000000 0.000000
vn 0.000000 1.000000 0.000000
vn 0.000000 1.000000 0.000000
vn 0.000000 1.000000 0.000000
vn 0.000000 -1.000000 0.000000
vn 0.000000 -1.000000 0.000000
vn 0.000000 -1.000000 0.000000
vn 0.000000 -1.000000 0.000000
vn 0.000000 -1.000000 0.000000
vn 0.000000 -1.000000 0.000000
vn 0.000000 1.000000 0.000000
vn 0.000000 1.000000 0.000000
vn 0.000000 1.000000 0.000000
vn 0.000000 1.000000 0.000000
vn 0.000000 -1.000000 0.000000
vn 0.000000 -1.000000 0.000000
vn 0.000000 0.624704 -0.780862
vn 0.000000 0.624704 -0.780862
vn 0.000000 0.624704 -0.780862
vn 0.000000 0.624704 -0.780862
vn -0.780862 0.624704 0.000000
vn -0.780862 0.624704 0.000000
vn -0.780862 0.624704 0.000000
vn -0.780862 0.624704 0.000000
vn 0.000000 0.624704 0.780862
vn 0.000000 0.624704 0.780862
vn 0.000000 0.624704 0.780862
vn 0.000000 0.624704 0.780862
vn 0.780862 0.624704 0.000000
vn 0.780862 0.624704 0.000000
vn 0.780862 0.624704 0.000000
vn 0.780862 0.624704 0.000000
vn 0.000000 -0.624704 0.780862
vn 0.000000 -0.624704 0.780862
vn 0.000000 -0.624704 0.780862
vn 0.000000 -0.624704 0.780862
vn -0.780862 -0.624704 0.000000
vn -0.780862 -0.624704 0.000000
vn -0.780862 -0.624704 0.000000
vn -0.780862 -0.624704 0.000000
vn 0.000000 -0.624704 -0.780862
vn 0.000000 -0.624704 -0.780862
vn 0.000000 -0.624704 -0.780862
vn 0.000000 -0.624704 -0.780862
vn 0.780862 -0.624704 0.000000
vn 0.780862 -0.624704 0.000000
vn 0.780862 -0.624704 0.000000
vn 0.780862 -0.624704 0.000000
s 1
g Center_Tile_geo Zeroed
usemtl aiStandardSurface2SG
f 2/1/1 1/9/2 19/21/3 21/8/4
f 3/10/5 2/1/1 6/2/6 5/12/7
f 4/11/8 6/2/6 23/5/9 22/23/10
s 2
f 7/13/11 9/6/12 14/3/13 13/17/14
f 9/6/12 8/14/15 12/16/16 11/7/17
f 11/7/17 10/15/18 18/20/19 17/4/20
f 15/18/21 14/3/13 17/4/20 16/19/22
s 1
f 21/8/4 20/22/23 24/24/24 23/5/9
s off
usemtl aiStandardSurface1SG
f 34/33/25 33/34/26 35/35/27 36/36/28
f 38/37/29 37/38/30 39/39/31 40/40/32
s 1
usemtl aiStandardSurface2SG
f 1/9/2 2/1/1 3/10/5 25/25/33
f 5/12/7 6/2/6 4/11/8 26/26/34
s 2
f 8/14/15 9/6/12 7/13/11 27/27/35
f 10/15/18 11/7/17 12/16/16 28/28/36
f 13/17/14 14/3/13 15/18/21 29/29/37
f 16/19/22 17/4/20 18/20/19 30/30/38
s 1
f 20/22/23 21/8/4 19/21/3 31/31/39
f 22/23/10 23/5/9 24/24/24 32/32/40
s off
f 9/6/41 11/7/42 33/34/43 34/33/44
f 11/7/45 17/4/46 35/35/47 33/34/48
f 17/4/49 14/3/50 36/36/51 35/35/52
f 14/3/53 9/6/54 34/33/55 36/36/56
f 21/8/57 23/5/58 37/38/59 38/37/60
f 23/5/61 6/2/62 39/39/63 37/38/64
f 6/2/65 2/1/66 40/40/67 39/39/68
f 2/1/69 21/8/70 38/37/71 40/40/72
